<svg xmlns="http://www.w3.org/2000/svg" height="20" viewBox="0 -960 960 960" width="20"><path d="M480-516.615q-53.5 0-89.75-36.25T354-642.615q0-53.501 36.25-89.751 36.25-36.25 89.75-36.25t89.75 36.25Q606-696.116 606-642.615q0 53.5-36.25 89.75T480-516.615ZM202-186.384v-80.847q0-20.769 11.61-38.7 11.611-17.931 32.621-31.146 53.615-31.154 113.507-47.731 59.893-16.577 119.962-16.577t120.262 16.577q60.192 16.577 113.807 47.731 21.01 12.215 32.621 30.646Q758-288 758-267.231v80.847H202Zm58-58.001h440v-22.846q0-7.484-4.102-12.411-4.102-4.928-12.206-8.358-42.384-24.923-96.336-40.154Q533.405-343.385 480-343.385q-53.405 0-107.356 14.731-53.952 14.731-96.336 40.654-8.154 4.077-12.231 8.993Q260-274.09 260-267.231v22.846Zm220.212-330.23q28.788 0 48.288-19.713 19.5-19.712 19.5-48.5 0-28.787-19.712-48.287-19.713-19.5-48.5-19.5-28.788 0-48.288 19.712-19.5 19.712-19.5 48.5t19.712 48.288q19.713 19.5 48.5 19.5Zm-.212-68Zm0 398.23Z"/></svg>