<svg xmlns="http://www.w3.org/2000/svg" height="20" viewBox="0 -960 960 960" width="20"><style>svg{fill:#ffffff}</style><path d="M100.846-186.384v-76.847q0-26.626 11.61-44.129 11.611-17.502 32.578-29.784 48.043-28.779 102.118-46.51 54.076-17.731 132.694-17.731 78.278 0 132.023 17.731 53.746 17.731 101.789 46.51 20.967 12.282 32.578 29.784 11.61 17.503 11.61 44.129v76.847h-557Zm634 0v-74.693q0-30.769-7.574-66.64-7.575-35.871-25.426-57.976 29.462 8 58.769 19.654 29.308 11.654 58.001 28.962 17.838 9.845 29.188 32.027 11.35 22.181 11.35 43.973v74.693H734.846Zm-356-325.231q-55.05 0-93.525-38.475-38.475-38.475-38.475-93.525 0-55.051 38.475-93.526 38.475-38.475 93.525-38.475 55.05 0 93.525 38.475 38.475 38.475 38.475 93.526 0 55.05-38.475 93.525-38.475 38.475-93.525 38.475Zm311.77-132q0 55.05-38.475 93.525-38.475 38.475-93.525 38.475-3.539 0-6.462.423-2.923.423-6.462-1.269 20.325-27.895 31.239-60.585 10.915-32.691 10.915-70.665 0-37.974-11.423-70.093Q565-745.923 545.692-774.77q3.231-.153 6.462-.5 3.231-.346 6.462-.346 55.05 0 93.525 38.475 38.475 38.475 38.475 93.526Zm-531.77 399.23h441v-18.846q0-9.547-2.563-14.38-2.564-4.832-13.745-10.389-38.769-23.923-90.384-39.654-51.616-15.731-113.808-15.731-62.192 0-113.808 15.231-51.615 15.231-90.384 40.154-11.181 5.442-13.745 10.067-2.563 4.625-2.563 14.609v18.939Zm220.336-325.23q30.664 0 52.164-21.837 21.5-21.836 21.5-52.5 0-30.663-21.836-52.163-21.837-21.5-52.5-21.5-30.664 0-52.164 21.836t-21.5 52.5q0 30.664 21.836 52.164 21.837 21.5 52.5 21.5Zm.664 325.23Zm-1-399.23Z"/></svg>