<svg xmlns="http://www.w3.org/2000/svg" height="20" viewBox="0 -960 960 960" width="20"><path d="M24-240.923v-46.539q0-52.846 45.384-83.154 45.385-30.307 119.385-30.307 3.154 0 8.116 1.384 4.961 1.385 14.73 2.385-15.384 19.385-23.192 43.475t-7.808 47.235v65.521H24Zm240 0v-57q0-23.04 11.538-43.135 11.539-20.096 33.923-28.711 42.385-18.616 83.808-28.424Q434.692-408 479.188-408q45.351 0 86.274 9.807 40.923 9.808 83.307 28.424 22.385 8.615 34.808 28.711Q696-320.963 696-297.923v57H264Zm515.385 0v-66.219q0-25.457-8.693-47.977-8.692-22.52-24.077-42.035 12.539-1 17.615-2.385 5.076-1.384 7.77-1.384 75.2 0 119.6 31.063 44.4 31.064 44.4 82.398v46.539H779.385Zm-445.231-58h290.923v-8.462q-10.308-19.461-52.654-31.038Q530.077-350 480-350q-50.077 0-92.423 12.077-42.346 12.077-53.423 30.538v8.462ZM188.866-442.616q35.134 0 60.057-17.133 24.923-17.134 24.923-41.193 0-23.828-24.919-41.289-24.919-17.462-59.912-17.462-37.015 0-61.169 17.072-24.154 17.073-24.154 41.436 0 23.646 24.488 41.108 24.487 17.461 60.686 17.461Zm583.435 0q35.699 0 60.237-17.373 24.539-17.374 24.539-40.724 0-24.057-24.679-41.518-24.679-17.462-60.003-17.462-36.395 0-60.933 17.072-24.539 17.073-24.539 41.206 0 24.357 24.546 41.578 24.547 17.221 60.832 17.221ZM479.776-455q-42.597 0-73.033-30.244t-30.436-73.449q0-42.269 30.244-72.981 30.244-30.711 73.449-30.711 42.269 0 72.981 30.633 30.712 30.634 30.712 73.283 0 42.597-30.634 73.033T479.776-455Zm1.109-58q18.592 0 31.7-13.993 13.107-13.992 13.107-32.584 0-18.593-13.136-31.7-13.137-13.108-32.556-13.108-17.708 0-31.7 13.136-13.992 13.137-13.992 32.556 0 17.708 13.992 31.7Q462.292-513 480.885-513Zm-1.654 214.077Zm.769-259.77Z"/></svg>