<svg xmlns="http://www.w3.org/2000/svg" height="20" viewBox="0 -960 960 960" width="20"><style>svg{fill:#ffffff}</style><path d="M493.462-152q-139.847 0-236.924-94.577T162.231-480h58.461Q220-368.769 299.427-289.385 378.855-210 491.462-210q110 0 189-79.5t79-190q0-110.5-78.083-190.5-78.082-80-187.917-80-62.014 0-115.208 23.831-53.193 23.831-88.869 66.631h106.23v58H179.461v-216.154h58v133.538q43.385-58.923 110.36-91.385Q414.796-808 493.462-808q67.371 0 126.292 25.738 58.92 25.739 102.959 70.43 44.038 44.691 69.394 104.492 25.355 59.801 25.355 127.34t-25.355 127.34q-25.356 59.801-69.394 104.492-44.039 44.691-102.959 70.43Q560.833-152 493.462-152Zm92.153-185.846L439.769-481.692V-688h58v179.692l129.154 129.154-41.308 41.308Z"/></svg>